<svg width="34" height="34" viewBox="0 0 34 34" fill="none" xmlns="http://www.w3.org/2000/svg">
<path d="M17.1814 33.317C22.1903 33.317 26.2316 29.2757 26.2316 24.281C26.2316 19.2721 22.1903 15.2308 17.1814 15.2308C12.1867 15.2308 8.14537 19.2721 8.14537 24.281C8.14537 29.2757 12.1867 33.317 17.1814 33.317ZM14.6057 28.9341C14.065 29.3325 13.4958 28.9199 13.7093 28.2938L14.7338 25.2343L12.1155 23.3703C11.6175 23.0003 11.774 22.303 12.457 22.303L15.673 22.3315L16.6549 19.2579C16.854 18.6318 17.5371 18.6318 17.7363 19.2579L18.7182 22.3315L21.9341 22.303C22.6171 22.303 22.7595 23.0145 22.2757 23.3561L19.6573 25.2343L20.6819 28.2938C20.8954 28.9199 20.3261 29.3325 19.7854 28.9341L17.1956 27.0415L14.6057 28.9341ZM8.51535 17.5076C9.90988 15.743 11.8309 14.4054 14.0365 13.7508L7.5904 2.1677L3.84794 7.8739C3.5918 8.24387 3.57757 8.65654 3.80525 9.02651L8.51535 17.5076ZM13.9939 8.89844H20.3831L24.7232 1.21429H9.65374L13.9939 8.89844ZM20.3404 13.7508C22.5603 14.4054 24.4671 15.743 25.8616 17.5076L30.5859 9.02651C30.7994 8.65654 30.7852 8.24387 30.5291 7.8739L26.7865 2.1677L20.3404 13.7508Z" fill="#FF9500"/>
</svg>
