<svg width="25" height="31" viewBox="0 0 25 31" fill="none" xmlns="http://www.w3.org/2000/svg">
<path d="M4.72406 30.709H23.1517C23.7779 30.709 24.2901 30.2109 24.2901 29.5706C24.2901 29.0725 23.9487 28.6313 23.4933 28.4748C21.7003 27.7633 21.3303 25.4438 23.0949 23.6651C23.6356 23.1244 24.2901 22.4272 24.2901 21.0041V4.68243C24.2901 1.72261 22.8245 0.214233 19.8789 0.214233H4.76674C1.82115 0.214233 0.355469 1.70838 0.355469 4.68243V26.3119C0.355469 29.2432 1.83538 30.709 4.72406 30.709ZM4.85211 28.418C3.4149 28.418 2.64649 27.6496 2.64649 26.2977C2.64649 25.017 3.5572 24.1916 4.98019 24.1916H19.58C19.7651 24.1916 19.9358 24.1774 20.0781 24.1489C19.4093 25.6289 19.5232 27.1942 20.2773 28.418H4.85211ZM4.42522 22.0286C3.98409 22.0286 3.61411 21.6588 3.61411 21.2034V3.23098C3.61411 2.77562 3.98409 2.41987 4.42522 2.41987C4.86635 2.41987 5.25056 2.77562 5.25056 3.23098V21.2034C5.25056 21.6588 4.86635 22.0286 4.42522 22.0286Z" fill="#FF9500"/>
</svg>
