<svg width="34" height="34" viewBox="0 0 34 34" fill="none" xmlns="http://www.w3.org/2000/svg">
<path d="M16.4955 31.1588C16.7232 31.1588 17.079 31.0733 17.4347 30.8884C25.5315 26.6479 28.1356 24.5276 28.1356 19.4191V8.68972C28.1356 7.22404 27.5094 6.75446 26.3142 6.2564C24.6493 5.57337 19.3273 3.63811 17.6766 3.06891C17.2924 2.94084 16.894 2.86969 16.4955 2.86969C16.0971 2.86969 15.6987 2.95507 15.3287 3.06891C13.6638 3.60965 8.34179 5.5876 6.6769 6.2564C5.49582 6.74022 4.85547 7.22404 4.85547 8.68972V19.4191C4.85547 24.5276 7.60184 26.406 15.5564 30.8884C15.9263 31.0876 16.2679 31.1588 16.4955 31.1588ZM10.0778 17.4838C10.0778 17.313 10.1632 17.0996 10.3198 16.9146L18.3597 6.8256C18.9715 6.05719 19.9962 6.56947 19.6262 7.52287L16.9794 14.6378H21.9456C22.3298 14.6378 22.6144 14.9081 22.6144 15.2925C22.6144 15.4632 22.529 15.6767 22.3725 15.8616L14.3326 25.9506C13.7207 26.719 12.7104 26.2067 13.0661 25.2676L15.7271 18.1384H10.7466C10.3767 18.1384 10.0778 17.868 10.0778 17.4838Z" fill="#FF9500"/>
</svg>
