<svg width="34" height="34" viewBox="0 0 34 34" fill="none" xmlns="http://www.w3.org/2000/svg">
<path d="M12.7969 25.4617C17.6154 24.1356 19.6777 20.3267 18.3191 15.1918L16.4914 8.21223C15.9929 6.33772 14.781 5.65971 12.9142 6.15825L3.22841 8.78056C1.35184 9.29904 0.657907 10.4955 1.15637 12.4099L2.97429 19.3795C4.31329 24.5045 7.97846 26.7779 12.7969 25.4617ZM11.8782 21.8922C9.83545 22.4306 7.8514 21.7227 6.8056 20.0276C6.60036 19.7185 6.77629 19.4094 7.16724 19.4394C8.46715 19.549 10.0114 19.3196 11.1256 19.0106C12.2203 18.7214 13.6472 18.1431 14.7321 17.3754C15.0546 17.1361 15.3772 17.3055 15.3576 17.7144C15.2892 19.7086 13.9307 21.3138 11.8782 21.8922ZM6.95222 15.3414C6.21918 15.5507 6.12144 16.0493 5.80868 16.0991C5.66208 16.129 5.48615 15.9595 5.39818 15.6704C5.16361 14.8229 5.6914 13.9155 6.53194 13.7061C7.38226 13.4967 8.25213 14.0052 8.46715 14.8229C8.55511 15.1219 8.47692 15.3513 8.32054 15.4111C7.95892 15.5407 7.61683 15.1618 6.95222 15.3414ZM12.9142 13.6962C12.1812 13.9155 12.0834 14.4041 11.7706 14.444C11.6241 14.4739 11.4481 14.3044 11.3602 14.0252C11.1256 13.1877 11.6534 12.2703 12.4939 12.061C13.354 11.8316 14.2141 12.3501 14.4291 13.1777C14.5171 13.4868 14.439 13.7061 14.2826 13.766C13.9307 13.8956 13.5788 13.5067 12.9142 13.6962ZM31.758 11.363L22.082 8.72074C20.3618 8.25211 19.1499 8.77059 18.6514 10.326L18.5341 10.7548L19.6093 14.8428C20.6843 18.9209 19.8048 22.3708 17.3027 24.6042C18.2605 26.2195 19.9611 27.4259 22.2091 28.0341C27.008 29.3403 30.6536 27.067 32.0024 21.942L33.8496 14.9824C34.3383 13.0979 33.6346 11.8715 31.758 11.363ZM21.9061 17.4053C21.2317 17.2358 20.8309 16.5378 21.0167 15.8299C21.2023 15.1419 21.8866 14.7331 22.5609 14.9226C23.2353 15.112 23.636 15.82 23.4601 16.5079C23.2744 17.1959 22.5902 17.5947 21.9061 17.4053ZM27.6433 18.9707C26.9787 18.7912 26.578 18.0833 26.7636 17.3853C26.9395 16.6974 27.6238 16.2986 28.2982 16.488C28.9823 16.6575 29.3732 17.3654 29.1973 18.0634C29.0116 18.7514 28.3274 19.1601 27.6433 18.9707ZM23.5285 22.7995C22.5121 22.5103 21.5347 22.5003 20.2837 22.7795C19.8927 22.8693 19.6581 22.5402 19.8634 22.2112C20.7039 20.8651 22.4045 20.3068 24.0563 20.7754C25.7667 21.2141 26.9298 22.5502 26.9884 24.1455C27.008 24.5444 26.6464 24.7139 26.3531 24.4447C25.3856 23.5473 24.5548 23.0687 23.5285 22.7995Z" fill="#FF9500"/>
</svg>
