<svg width="34" height="34" viewBox="0 0 34 34" fill="none" xmlns="http://www.w3.org/2000/svg">
<path d="M5.67329 25.0954L6.07096 26.7043C6.57466 28.796 7.67486 29.8686 9.86199 29.8686H24.138C26.3384 29.8686 27.4253 28.8228 27.9423 26.7043L28.34 25.0954H5.67329ZM5.23587 23.2585H28.7906L31.2826 12.9345L30.1957 12.3043L24.085 16.8094C23.6343 17.1312 23.3294 17.0105 23.0775 16.6485L17.3247 7.85295L16.6885 7.82613L10.8826 16.6887C10.6573 17.0373 10.3922 17.1446 9.94151 16.8228L3.9501 12.3982L2.67759 12.7334L5.23587 23.2585ZM3.16803 15.616C4.91774 15.616 6.3228 14.1814 6.3228 12.3982C6.3228 10.6552 4.91774 9.20713 3.16803 9.20713C1.41833 9.20713 0 10.6418 0 12.3982C0 14.1814 1.43157 15.616 3.16803 15.616ZM17.0067 10.0384C18.7431 10.0384 20.1614 8.60379 20.1614 6.83395C20.1614 5.09092 18.7431 3.64288 17.0067 3.64288C15.2437 3.64288 13.8386 5.07753 13.8386 6.83395C13.8386 8.60379 15.2569 10.0384 17.0067 10.0384ZM30.8319 15.616C32.5685 15.616 34 14.1814 34 12.3982C34 10.6418 32.5817 9.20713 30.8319 9.20713C29.0956 9.20713 27.6772 10.6552 27.6772 12.3982C27.6772 14.1814 29.0956 15.616 30.8319 15.616Z" fill="#FF9500"/>
</svg>
