<svg width="35" height="33" viewBox="0 0 35 33" fill="none" xmlns="http://www.w3.org/2000/svg">
<path d="M28.2626 29.0014C28.9029 29.0014 29.4294 28.4892 29.4294 27.863C29.4294 27.2227 28.9029 26.6962 28.2626 26.6962H26.5265V17.2618C26.5265 12.0679 22.5279 8.05503 17.334 8.05503C12.1543 8.05503 8.15569 12.0679 8.15569 17.2618V26.6962H6.39118C5.76507 26.6962 5.26702 27.2227 5.26702 27.863C5.26702 28.4892 5.76507 29.0014 6.39118 29.0014H28.2626ZM18.5293 17.3045V26.6962H16.1671V17.3045C16.1671 16.65 16.6794 16.1091 17.334 16.1091C17.9885 16.1091 18.5293 16.65 18.5293 17.3045ZM4.44168 18.2863C5.1105 18.2863 5.69391 17.7314 5.69391 17.0768C5.69391 16.3937 5.1105 15.8388 4.44168 15.8388H1.70954C1.05497 15.8388 0.5 16.4079 0.5 17.0768C0.5 17.7172 1.05497 18.2863 1.70954 18.2863H4.44168ZM7.35882 8.82345C7.82841 9.29303 8.61105 9.30727 9.08064 8.82345C9.56445 8.33964 9.55022 7.57121 9.08064 7.10164L7.1596 5.16636C6.70425 4.68255 5.90736 4.68255 5.42355 5.16636C4.95396 5.65018 4.95396 6.40437 5.42355 6.88818L7.35882 8.82345ZM16.1102 4.1845C16.1102 4.8533 16.6652 5.4225 17.334 5.4225C18.017 5.4225 18.572 4.8533 18.572 4.1845V1.45236C18.572 0.783552 18.0028 0.214355 17.334 0.214355C16.6652 0.214355 16.1102 0.783552 16.1102 1.45236V4.1845ZM25.5731 7.10164C25.1035 7.57121 25.0893 8.33964 25.5731 8.82345C26.0712 9.30727 26.8253 9.29303 27.2949 8.82345L29.2444 6.88818C29.714 6.40437 29.714 5.65018 29.2444 5.16636C28.7463 4.68255 27.9922 4.68255 27.5226 5.16636L25.5731 7.10164ZM32.9443 18.2863C33.613 18.2863 34.1822 17.7172 34.1822 17.0768C34.1822 16.4079 33.613 15.8388 32.9443 15.8388H30.2121C29.5575 15.8388 28.9882 16.3937 28.9882 17.0768C28.9882 17.7314 29.5575 18.2863 30.2121 18.2863H32.9443Z" fill="#FF9500"/>
</svg>
